<?xml version="1.0" encoding="iso-8859-1"?>
<!-- Generator: Adobe Illustrator 19.0.0, SVG Export Plug-In . SVG Version: 6.00 Build 0)  -->
<svg version="1.1" id="Capa_1" xmlns="http://www.w3.org/2000/svg" xmlns:xlink="http://www.w3.org/1999/xlink" x="0px" y="0px"
	 viewBox="0 0 511.999 511.999" style="enable-background:new 0 0 511.999 511.999;" xml:space="preserve">
<g>
	<path style="fill:#DDE5E8;" d="M235.443,223.476c-9.437-16.931-27.648-27.081-47.03-27.081H12.584
		c-3.979,0-6.415,4.365-4.325,7.752l4.19,6.786c9.617,15.578,26.617,25.062,44.925,25.062l4.128,0.4l6.794,14.539
		c7.28,15.578,20.149,25.062,34.009,25.062h17.623l4.598,14.539c4.926,15.578,13.638,25.062,23.018,25.062h63.845h25.812
		c2.806,0,5.083-2.276,5.083-5.083v-60.72C242.283,240.586,239.93,231.526,235.443,223.476z"/>
	<path style="fill:#DDE5E8;" d="M322.667,196.396c-19.311,0-37.081,10.542-46.335,27.49l0,0c-4.339,7.947-6.614,16.856-6.614,25.91
		v60.722c0,2.806,2.276,5.083,5.083,5.083h25.812h63.845c9.38,0,18.09-9.485,23.018-25.062l4.598-14.539h17.623
		c13.858,0,26.729-9.485,34.009-25.062l6.794-14.539l4.128-0.4c18.307,0,35.308-9.485,44.925-25.062l4.19-6.786
		c2.09-3.386-0.345-7.752-4.325-7.752L322.667,196.396L322.667,196.396z"/>
</g>
<g>
	<path style="fill:#BACBD1;" d="M503.742,204.152l-4.188,6.779c-9.616,15.582-26.621,25.066-44.928,25.066l-4.127,0.396l-6.8,14.545
		c-7.278,15.572-20.146,25.056-34,25.056h-17.625l-4.604,14.545c-4.919,15.572-13.631,25.056-23.013,25.056h-43.454
		c9.91,0,19.11-10.012,24.313-26.468l4.858-15.359h18.621c14.637,0,28.237-10.022,35.922-26.478l7.177-15.359l4.36-0.417
		c19.343,0,37.304-10.022,47.458-26.478l4.421-7.166c0.295-0.477,0.508-0.975,0.64-1.474h30.637
		C503.396,196.396,505.826,200.757,503.742,204.152z"/>
	<path style="fill:#BACBD1;" d="M8.257,204.152l4.188,6.779c9.616,15.582,26.621,25.066,44.928,25.066l4.127,0.396l6.8,14.545
		c7.278,15.572,20.146,25.056,34,25.056h17.625l4.604,14.545c4.919,15.572,13.631,25.056,23.013,25.056h43.454
		c-9.91,0-19.11-10.012-24.313-26.468l-4.858-15.359h-18.622c-14.637,0-28.237-10.022-35.922-26.478l-7.177-15.359l-4.36-0.417
		c-19.343,0-37.304-10.022-47.458-26.478l-4.421-7.166c-0.295-0.477-0.508-0.975-0.64-1.474H12.587
		C8.602,196.396,6.173,200.757,8.257,204.152z"/>
</g>
<path d="M237.201,323.106h-89.656c-12.893,0-24.171-11.329-30.172-30.304l-2.94-9.298h-12.127
	c-16.698,0-32.335-11.262-40.807-29.391l-4.962-10.617c-20.735-0.279-39.554-10.933-50.472-28.618l-4.19-6.786
	c-2.395-3.88-2.502-8.762-0.281-12.743s6.432-6.454,10.992-6.454h176.749c22.067,0,42.345,12.03,52.922,31.397
	c4.928,9.023,7.532,19.226,7.532,29.507v60.721C249.787,317.459,244.14,323.106,237.201,323.106z M16.925,203.902l1.909,3.093
	c8.31,13.463,22.717,21.5,38.539,21.5c0.241,0,0.482,0.012,0.723,0.035l4.127,0.399c2.641,0.256,4.951,1.888,6.075,4.292
	l6.794,14.539c6.068,12.985,16.239,20.736,27.211,20.736h17.624c3.273,0,6.168,2.121,7.155,5.241l4.598,14.538
	c3.75,11.857,10.124,19.823,15.863,19.823h87.235v-58.3c0-7.775-1.97-15.491-5.696-22.314
	c-7.944-14.546-23.175-23.583-39.749-23.583L16.925,203.902L16.925,203.902z"/>
<path d="M177.372,243.9H61.501c-4.144,0-7.504-3.36-7.504-7.504c0-4.144,3.36-7.504,7.504-7.504h115.871
	c4.144,0,7.504,3.36,7.504,7.504C184.875,240.54,181.516,243.9,177.372,243.9z"/>
<path d="M200.75,283.49h-80.797c-4.144,0-7.504-3.359-7.504-7.504c0-4.145,3.36-7.504,7.504-7.504h80.797
	c4.144,0,7.504,3.359,7.504,7.504C208.254,280.131,204.894,283.49,200.75,283.49z"/>
<path d="M364.455,323.106h-89.656c-6.941,0-12.586-5.647-12.586-12.586v-60.721c0-10.282,2.605-20.486,7.533-29.508
	c10.575-19.365,30.854-31.396,52.921-31.396h69.381c4.145,0,7.504,3.36,7.504,7.504s-3.359,7.504-7.504,7.504h-69.381
	c-16.574,0-31.806,9.037-39.749,23.583c-3.727,6.822-5.696,14.538-5.696,22.314v58.301h87.235c5.739,0,12.113-7.966,15.862-19.823
	l4.6-14.538c0.986-3.121,3.882-5.241,7.154-5.241h17.624c10.971,0,21.143-7.752,27.21-20.736l6.794-14.539
	c1.124-2.403,3.433-4.036,6.073-4.292l4.128-0.4c0.241-0.023,0.482-0.035,0.725-0.035c15.821,0,30.227-8.038,38.539-21.501
	l1.909-3.093h-53.711c-4.145,0-7.504-3.36-7.504-7.504s3.359-7.504,7.504-7.504h58.051c4.558,0,8.77,2.473,10.991,6.454
	c2.221,3.981,2.113,8.863-0.281,12.742l-4.19,6.787c-10.919,17.687-29.738,28.34-50.472,28.618l-4.962,10.618
	c-8.472,18.129-24.108,29.391-40.807,29.391h-12.127l-2.941,9.298C388.626,311.777,377.348,323.106,364.455,323.106z"/>
<path d="M450.498,243.9h-115.87c-4.145,0-7.504-3.36-7.504-7.504c0-4.144,3.359-7.504,7.504-7.504h115.87
	c4.145,0,7.504,3.36,7.504,7.504C458.001,240.54,454.643,243.9,450.498,243.9z"/>
<path d="M392.047,283.49h-80.798c-4.145,0-7.504-3.359-7.504-7.504c0-4.145,3.359-7.504,7.504-7.504h80.798
	c4.145,0,7.504,3.359,7.504,7.504C399.551,280.131,396.192,283.49,392.047,283.49z"/>
<g>
</g>
<g>
</g>
<g>
</g>
<g>
</g>
<g>
</g>
<g>
</g>
<g>
</g>
<g>
</g>
<g>
</g>
<g>
</g>
<g>
</g>
<g>
</g>
<g>
</g>
<g>
</g>
<g>
</g>
</svg>
